<svg width="271" height="40" viewBox="0 0 271 40" fill="none" xmlns="http://www.w3.org/2000/svg">
<path d="M52.9297 10.9375H55.5547L60.4883 24.0977L65.4102 10.9375H68.0352L61.5195 28H59.4336L52.9297 10.9375ZM51.7344 10.9375H54.2305L54.6641 22.3281V28H51.7344V10.9375ZM66.7344 10.9375H69.2422V28H66.3008V22.3281L66.7344 10.9375ZM71.9141 21.8008V21.5312C71.9141 20.6172 72.0469 19.7695 72.3125 18.9883C72.5781 18.1992 72.9609 17.5156 73.4609 16.9375C73.9688 16.3516 74.5859 15.8984 75.3125 15.5781C76.0469 15.25 76.875 15.0859 77.7969 15.0859C78.7266 15.0859 79.5547 15.25 80.2812 15.5781C81.0156 15.8984 81.6367 16.3516 82.1445 16.9375C82.6523 17.5156 83.0391 18.1992 83.3047 18.9883C83.5703 19.7695 83.7031 20.6172 83.7031 21.5312V21.8008C83.7031 22.7148 83.5703 23.5625 83.3047 24.3438C83.0391 25.125 82.6523 25.8086 82.1445 26.3945C81.6367 26.9727 81.0195 27.4258 80.293 27.7539C79.5664 28.0742 78.7422 28.2344 77.8203 28.2344C76.8906 28.2344 76.0586 28.0742 75.3242 27.7539C74.5977 27.4258 73.9805 26.9727 73.4727 26.3945C72.9648 25.8086 72.5781 25.125 72.3125 24.3438C72.0469 23.5625 71.9141 22.7148 71.9141 21.8008ZM74.7383 21.5312V21.8008C74.7383 22.3711 74.7969 22.9102 74.9141 23.418C75.0312 23.9258 75.2148 24.3711 75.4648 24.7539C75.7148 25.1367 76.0352 25.4375 76.4258 25.6562C76.8164 25.875 77.2812 25.9844 77.8203 25.9844C78.3438 25.9844 78.7969 25.875 79.1797 25.6562C79.5703 25.4375 79.8906 25.1367 80.1406 24.7539C80.3906 24.3711 80.5742 23.9258 80.6914 23.418C80.8164 22.9102 80.8789 22.3711 80.8789 21.8008V21.5312C80.8789 20.9688 80.8164 20.4375 80.6914 19.9375C80.5742 19.4297 80.3867 18.9805 80.1289 18.5898C79.8789 18.1992 79.5586 17.8945 79.168 17.6758C78.7852 17.4492 78.3281 17.3359 77.7969 17.3359C77.2656 17.3359 76.8047 17.4492 76.4141 17.6758C76.0312 17.8945 75.7148 18.1992 75.4648 18.5898C75.2148 18.9805 75.0312 19.4297 74.9141 19.9375C74.7969 20.4375 74.7383 20.9688 74.7383 21.5312ZM88.8711 18.0273V28H86.0469V15.3203H88.707L88.8711 18.0273ZM88.3672 21.1914L87.4531 21.1797C87.4609 20.2812 87.5859 19.457 87.8281 18.707C88.0781 17.957 88.4219 17.3125 88.8594 16.7734C89.3047 16.2344 89.8359 15.8203 90.4531 15.5312C91.0703 15.2344 91.7578 15.0859 92.5156 15.0859C93.125 15.0859 93.6758 15.1719 94.168 15.3438C94.668 15.5078 95.0938 15.7773 95.4453 16.1523C95.8047 16.5273 96.0781 17.0156 96.2656 17.6172C96.4531 18.2109 96.5469 18.9414 96.5469 19.8086V28H93.7109V19.7969C93.7109 19.1875 93.6211 18.707 93.4414 18.3555C93.2695 17.9961 93.0156 17.7422 92.6797 17.5938C92.3516 17.4375 91.9414 17.3594 91.4492 17.3594C90.9648 17.3594 90.5312 17.4609 90.1484 17.6641C89.7656 17.8672 89.4414 18.1445 89.1758 18.4961C88.918 18.8477 88.7188 19.2539 88.5781 19.7148C88.4375 20.1758 88.3672 20.668 88.3672 21.1914ZM102.453 15.3203V28H99.6172V15.3203H102.453ZM99.4297 11.9922C99.4297 11.5625 99.5703 11.207 99.8516 10.9258C100.141 10.6367 100.539 10.4922 101.047 10.4922C101.547 10.4922 101.941 10.6367 102.23 10.9258C102.52 11.207 102.664 11.5625 102.664 11.9922C102.664 12.4141 102.52 12.7656 102.23 13.0469C101.941 13.3281 101.547 13.4688 101.047 13.4688C100.539 13.4688 100.141 13.3281 99.8516 13.0469C99.5703 12.7656 99.4297 12.4141 99.4297 11.9922ZM111.359 15.3203V17.3828H104.211V15.3203H111.359ZM106.273 12.2148H109.098V24.4961C109.098 24.8867 109.152 25.1875 109.262 25.3984C109.379 25.6016 109.539 25.7383 109.742 25.8086C109.945 25.8789 110.184 25.9141 110.457 25.9141C110.652 25.9141 110.84 25.9023 111.02 25.8789C111.199 25.8555 111.344 25.832 111.453 25.8086L111.465 27.9648C111.23 28.0352 110.957 28.0977 110.645 28.1523C110.34 28.207 109.988 28.2344 109.59 28.2344C108.941 28.2344 108.367 28.1211 107.867 27.8945C107.367 27.6602 106.977 27.2812 106.695 26.7578C106.414 26.2344 106.273 25.5391 106.273 24.6719V12.2148ZM112.719 21.8008V21.5312C112.719 20.6172 112.852 19.7695 113.117 18.9883C113.383 18.1992 113.766 17.5156 114.266 16.9375C114.773 16.3516 115.391 15.8984 116.117 15.5781C116.852 15.25 117.68 15.0859 118.602 15.0859C119.531 15.0859 120.359 15.25 121.086 15.5781C121.82 15.8984 122.441 16.3516 122.949 16.9375C123.457 17.5156 123.844 18.1992 124.109 18.9883C124.375 19.7695 124.508 20.6172 124.508 21.5312V21.8008C124.508 22.7148 124.375 23.5625 124.109 24.3438C123.844 25.125 123.457 25.8086 122.949 26.3945C122.441 26.9727 121.824 27.4258 121.098 27.7539C120.371 28.0742 119.547 28.2344 118.625 28.2344C117.695 28.2344 116.863 28.0742 116.129 27.7539C115.402 27.4258 114.785 26.9727 114.277 26.3945C113.77 25.8086 113.383 25.125 113.117 24.3438C112.852 23.5625 112.719 22.7148 112.719 21.8008ZM115.543 21.5312V21.8008C115.543 22.3711 115.602 22.9102 115.719 23.418C115.836 23.9258 116.02 24.3711 116.27 24.7539C116.52 25.1367 116.84 25.4375 117.23 25.6562C117.621 25.875 118.086 25.9844 118.625 25.9844C119.148 25.9844 119.602 25.875 119.984 25.6562C120.375 25.4375 120.695 25.1367 120.945 24.7539C121.195 24.3711 121.379 23.9258 121.496 23.418C121.621 22.9102 121.684 22.3711 121.684 21.8008V21.5312C121.684 20.9688 121.621 20.4375 121.496 19.9375C121.379 19.4297 121.191 18.9805 120.934 18.5898C120.684 18.1992 120.363 17.8945 119.973 17.6758C119.59 17.4492 119.133 17.3359 118.602 17.3359C118.07 17.3359 117.609 17.4492 117.219 17.6758C116.836 17.8945 116.52 18.1992 116.27 18.5898C116.02 18.9805 115.836 19.4297 115.719 19.9375C115.602 20.4375 115.543 20.9688 115.543 21.5312ZM129.711 17.7344V28H126.887V15.3203H129.582L129.711 17.7344ZM133.59 15.2383L133.566 17.8633C133.395 17.832 133.207 17.8086 133.004 17.793C132.809 17.7773 132.613 17.7695 132.418 17.7695C131.934 17.7695 131.508 17.8398 131.141 17.9805C130.773 18.1133 130.465 18.3086 130.215 18.5664C129.973 18.8164 129.785 19.1211 129.652 19.4805C129.52 19.8398 129.441 20.2422 129.418 20.6875L128.773 20.7344C128.773 19.9375 128.852 19.1992 129.008 18.5195C129.164 17.8398 129.398 17.2422 129.711 16.7266C130.031 16.2109 130.43 15.8086 130.906 15.5195C131.391 15.2305 131.949 15.0859 132.582 15.0859C132.754 15.0859 132.938 15.1016 133.133 15.1328C133.336 15.1641 133.488 15.1992 133.59 15.2383Z" fill="#919191"/>
<path d="M140.111 10.5455L142.974 15.625H143.111L146.009 10.5455H151.293L146.077 19.2727L151.497 28H146.077L143.111 22.8182H142.974L140.009 28H134.622L139.974 19.2727L134.793 10.5455H140.111Z" fill="#69ABE8"/>
<path fill-rule="evenodd" clip-rule="evenodd" d="M0 20C0 8.95004 9.02495 0 20.1674 0C31.3099 0 40.3349 8.95004 40.3348 20C40.3348 31.04 31.3098 40 20.1674 40C9.02495 40 0 31.04 0 20ZM8.06694 32L24.5841 24.38L32.2679 7.99998L15.7507 15.62L8.06694 32ZM22.3858 20C22.3858 21.21 21.3976 22.2 20.1674 22.2C18.9473 22.2 17.9489 21.21 17.9489 20C17.9489 18.79 18.9472 17.8 20.1674 17.8C21.3977 17.8 22.3858 18.79 22.3858 20Z" fill="#121214"/>
</svg>
